<svg 
 xmlns="http://www.w3.org/2000/svg"
 xmlns:xlink="http://www.w3.org/1999/xlink"
 width="16px" height="16px">
<path fill-rule="evenodd"  fill="rgb(255, 255, 255)"
 d="M14.000,16.000 L14.000,14.000 L16.000,14.000 L16.000,16.000 L14.000,16.000 ZM14.000,7.000 L16.000,7.000 L16.000,9.000 L14.000,9.000 L14.000,7.000 ZM14.000,-0.000 L16.000,-0.000 L16.000,2.000 L14.000,2.000 L14.000,-0.000 ZM7.000,14.000 L9.000,14.000 L9.000,16.000 L7.000,16.000 L7.000,14.000 ZM7.000,7.000 L9.000,7.000 L9.000,9.000 L7.000,9.000 L7.000,7.000 ZM7.000,-0.000 L9.000,-0.000 L9.000,2.000 L7.000,2.000 L7.000,-0.000 ZM0.000,7.000 L2.000,7.000 L2.000,9.000 L0.000,9.000 L0.000,7.000 ZM0.000,-0.000 L2.000,-0.000 L2.000,2.000 L0.000,2.000 L0.000,-0.000 ZM2.000,16.000 L-0.000,16.000 L-0.000,14.000 L2.000,14.000 L2.000,16.000 Z"/>
</svg>