<svg 
 xmlns="http://www.w3.org/2000/svg"
 xmlns:xlink="http://www.w3.org/1999/xlink"
 width="170px" height="50px">
<path fill-rule="evenodd"  fill="rgb(255, 255, 255)"
 d="M-0.001,50.000 L-0.001,-0.000 L170.000,-0.000 L170.000,50.000 L-0.001,50.000 ZM169.000,1.000 L1.000,1.000 L1.000,49.000 L169.000,49.000 L169.000,1.000 ZM22.375,20.812 L22.428,20.812 C22.803,19.524 23.427,18.536 24.300,17.851 C25.173,17.165 26.242,16.822 27.508,16.822 C28.129,16.822 28.703,16.928 29.230,17.139 L29.230,18.510 C28.715,18.252 28.070,18.123 27.297,18.123 C25.832,18.123 24.660,18.692 23.781,19.828 C22.902,20.965 22.463,22.436 22.463,24.240 L22.463,36.000 L21.092,36.000 L21.092,17.068 L22.375,17.068 L22.375,20.812 ZM38.055,16.822 C40.492,16.822 42.449,17.657 43.926,19.327 C45.402,20.997 46.141,23.209 46.141,25.963 L46.141,26.754 L31.146,26.754 L31.146,26.824 C31.146,29.379 31.785,31.383 33.063,32.836 C34.340,34.289 36.057,35.016 38.213,35.016 C39.900,35.016 41.304,34.617 42.423,33.820 C43.542,33.024 44.242,31.986 44.523,30.709 L45.912,30.709 C45.596,32.338 44.743,33.668 43.354,34.699 C41.966,35.731 40.246,36.246 38.195,36.246 C35.605,36.246 33.552,35.388 32.034,33.671 C30.516,31.954 29.758,29.584 29.758,26.561 C29.758,23.631 30.516,21.276 32.034,19.494 C33.552,17.713 35.559,16.822 38.055,16.822 ZM44.752,25.594 C44.740,23.356 44.116,21.539 42.880,20.145 C41.643,18.750 40.029,18.053 38.037,18.053 C36.068,18.053 34.457,18.744 33.203,20.127 C31.949,21.510 31.270,23.332 31.164,25.594 L44.752,25.594 ZM50.992,21.234 L51.045,21.234 C51.408,19.922 52.088,18.859 53.084,18.044 C54.080,17.230 55.299,16.822 56.740,16.822 C58.193,16.822 59.430,17.247 60.449,18.097 C61.469,18.946 62.131,20.021 62.436,21.322 L62.471,21.322 C62.822,20.045 63.540,18.976 64.624,18.114 C65.708,17.253 66.994,16.822 68.482,16.822 C70.311,16.822 71.778,17.408 72.886,18.580 C73.993,19.752 74.547,21.316 74.547,23.273 L74.547,36.000 L73.176,36.000 L73.176,23.572 C73.176,21.861 72.733,20.517 71.849,19.538 C70.964,18.560 69.742,18.070 68.184,18.070 C66.590,18.070 65.295,18.645 64.299,19.793 C63.303,20.942 62.805,22.436 62.805,24.275 L62.805,36.000 L61.451,36.000 L61.451,23.520 C61.451,21.891 60.988,20.575 60.062,19.573 C59.137,18.571 57.947,18.070 56.494,18.070 C54.888,18.070 53.585,18.680 52.583,19.898 C51.581,21.117 51.080,22.729 51.080,24.732 L51.080,36.000 L49.709,36.000 L49.709,17.068 L50.992,17.068 L50.992,21.234 ZM84.900,25.488 L91.387,25.014 L91.387,23.326 C91.387,21.674 90.909,20.385 89.954,19.459 C88.999,18.533 87.672,18.070 85.973,18.070 C84.367,18.070 83.055,18.463 82.035,19.248 C81.016,20.033 80.394,21.141 80.172,22.570 L78.854,22.570 C79.017,20.824 79.750,19.430 81.051,18.387 C82.352,17.344 83.998,16.822 85.990,16.822 C88.064,16.822 89.708,17.397 90.921,18.545 C92.134,19.694 92.740,21.258 92.740,23.238 L92.740,36.000 L91.422,36.000 L91.422,31.922 L91.387,31.922 C90.918,33.211 90.039,34.254 88.750,35.051 C87.461,35.848 86.014,36.246 84.408,36.246 C82.556,36.246 81.048,35.751 79.882,34.761 C78.716,33.771 78.133,32.484 78.133,30.902 C78.133,29.285 78.704,28.020 79.847,27.105 C80.989,26.191 82.674,25.653 84.900,25.488 ZM80.937,33.873 C81.892,34.646 83.107,35.033 84.584,35.033 C86.471,35.033 88.076,34.444 89.400,33.267 C90.725,32.089 91.387,30.662 91.387,28.986 L91.387,26.156 L85.076,26.631 C83.260,26.760 81.877,27.188 80.928,27.914 C79.979,28.641 79.504,29.637 79.504,30.902 C79.504,32.109 79.981,33.100 80.937,33.873 ZM97.996,20.812 L98.049,20.812 C98.424,19.524 99.048,18.536 99.921,17.851 C100.794,17.165 101.863,16.822 103.129,16.822 C103.750,16.822 104.324,16.928 104.852,17.139 L104.852,18.510 C104.336,18.252 103.691,18.123 102.918,18.123 C101.453,18.123 100.281,18.692 99.402,19.828 C98.523,20.965 98.084,22.436 98.084,24.240 L98.084,36.000 L96.713,36.000 L96.713,17.068 L97.996,17.068 L97.996,20.812 ZM109.264,26.789 L109.281,26.789 L119.986,17.068 L121.779,17.068 L112.867,25.225 L121.850,36.000 L120.180,36.000 L111.848,26.068 L109.264,28.389 L109.264,36.000 L107.893,36.000 L107.893,9.527 L109.264,9.527 L109.264,26.789 ZM131.307,16.822 C133.744,16.822 135.701,17.657 137.178,19.327 C138.654,20.997 139.393,23.209 139.393,25.963 L139.393,26.754 L124.398,26.754 L124.398,26.824 C124.398,29.379 125.037,31.383 126.314,32.836 C127.592,34.289 129.309,35.016 131.465,35.016 C133.152,35.016 134.556,34.617 135.675,33.820 C136.794,33.024 137.494,31.986 137.775,30.709 L139.164,30.709 C138.848,32.338 137.995,33.668 136.606,34.699 C135.218,35.731 133.498,36.246 131.447,36.246 C128.857,36.246 126.804,35.388 125.286,33.671 C123.768,31.954 123.010,29.584 123.010,26.561 C123.010,23.631 123.768,21.276 125.286,19.494 C126.804,17.713 128.811,16.822 131.307,16.822 ZM138.004,25.594 C137.992,23.356 137.368,21.539 136.132,20.145 C134.895,18.750 133.281,18.053 131.289,18.053 C129.320,18.053 127.709,18.744 126.455,20.127 C125.201,21.510 124.521,23.332 124.416,25.594 L138.004,25.594 ZM144.016,12.199 L145.369,12.199 L145.369,17.068 L149.307,17.068 L149.307,18.264 L145.369,18.264 L145.369,31.658 C145.369,32.783 145.586,33.592 146.020,34.084 C146.453,34.576 147.150,34.822 148.111,34.822 C149.002,34.822 149.482,34.811 149.553,34.787 L149.553,36.000 C149.412,36.023 148.873,36.035 147.936,36.035 C146.553,36.035 145.554,35.698 144.938,35.024 C144.323,34.351 144.016,33.240 144.016,31.693 L144.016,18.264 L141.238,18.264 L141.238,17.068 L144.016,17.068 L144.016,12.199 Z"/>
</svg>