<svg 
 xmlns="http://www.w3.org/2000/svg"
 xmlns:xlink="http://www.w3.org/1999/xlink"
 width="33px" height="20px">
<path fill-rule="evenodd"  fill="rgb(255, 255, 255)"
 d="M0.000,20.000 L0.000,0.000 L33.000,0.000 L33.000,20.000 L0.000,20.000 ZM11.571,9.911 C11.910,9.407 12.080,8.820 12.080,8.150 C12.080,7.230 11.784,6.497 11.191,5.953 C10.599,5.408 9.797,5.136 8.785,5.136 L4.909,5.136 L4.909,15.000 L6.440,15.000 L6.440,11.206 L8.601,11.206 L10.610,15.000 L12.381,15.000 L10.166,10.967 C10.763,10.766 11.231,10.414 11.571,9.911 ZM20.174,13.674 L15.443,13.674 L15.443,10.611 L19.921,10.611 L19.921,9.340 L15.443,9.340 L15.443,6.455 L20.174,6.455 L20.174,5.136 L13.912,5.136 L13.912,15.000 L20.174,15.000 L20.174,13.674 ZM28.069,5.136 L21.910,5.136 L21.910,15.000 L23.441,15.000 L23.441,10.871 L27.680,10.871 L27.680,9.579 L23.441,9.579 L23.441,6.455 L28.069,6.455 L28.069,5.136 ZM8.642,9.969 L6.440,9.969 L6.440,6.421 L8.601,6.421 C9.193,6.421 9.659,6.578 9.999,6.893 C10.338,7.207 10.508,7.640 10.508,8.191 C10.508,8.757 10.345,9.194 10.019,9.504 C9.693,9.814 9.234,9.969 8.642,9.969 Z"/>
</svg>